<svg xmlns="http://www.w3.org/2000/svg" width="256" height="256" viewBox="0 0 100 100"><rect width="100" height="100" rx="50" fill="#4853ad"></rect><path fill="#d3dbff" d="M29.25 18.50L52.92 18.50L52.66 23.45Q50.31 23.54 48.88 24.30Q47.44 25.07 46.71 26.96Q45.99 28.85 45.81 32.36L45.81 32.36L43.92 68.18Q43.83 70.61 43.66 72.64Q43.47 74.66 43.30 75.83L43.30 75.83L56.88 75.74Q62.38 75.65 65.57 72.05Q68.77 68.45 69.13 60.89L69.13 60.89L74.07 60.89L72.54 81.50L25.92 81.50L26.20 76.55Q28.63 76.46 30.02 75.69Q31.41 74.93 32.09 73.00Q32.77 71.06 32.95 67.64L32.95 67.64L34.84 31.73Q35.02 29.48 35.20 27.41Q35.38 25.34 35.64 24.17L35.64 24.17Q34.11 24.26 32.13 24.30Q30.15 24.35 28.98 24.44L28.98 24.44L29.25 18.50Z"></path></svg>