<svg width="66" height="66" viewBox="0 0 66 66" fill="none" xmlns="http://www.w3.org/2000/svg">
<path d="M33 66C51.2254 66 66 51.2254 66 33C66 14.7746 51.2254 0 33 0C14.7746 0 0 14.7746 0 33C0 51.2254 14.7746 66 33 66Z" fill="#D3DBFF"/>
<path d="M44 22H44.02M23 13H43C48.5228 13 53 17.4772 53 23V43C53 48.5228 48.5228 53 43 53H23C17.4772 53 13 48.5228 13 43V23C13 17.4772 17.4772 13 23 13ZM41 31.74C41.2468 33.4045 40.9625 35.1044 40.1875 36.598C39.4125 38.0916 38.1863 39.3028 36.6833 40.0593C35.1802 40.8159 33.4769 41.0792 31.8156 40.8119C30.1543 40.5445 28.6195 39.7602 27.4297 38.5703C26.2398 37.3805 25.4555 35.8457 25.1881 34.1844C24.9208 32.5231 25.1841 30.8198 25.9407 29.3167C26.6972 27.8137 27.9084 26.5875 29.402 25.8125C30.8956 25.0375 32.5955 24.7532 34.26 25C35.9578 25.2518 37.5297 26.0429 38.7434 27.2566C39.9571 28.4703 40.7482 30.0422 41 31.74Z" stroke="#535353" stroke-width="4" stroke-linecap="round" stroke-linejoin="round"/>
</svg>
