<?xml version="1.0" encoding="UTF-8"?>
<svg id="Lag_2" data-name="Lag 2" xmlns="http://www.w3.org/2000/svg" viewBox="0 0 77.4 74.12">
  <defs>
    <style>
      .cls-1 {
        letter-spacing: -.02em;
      }

      .cls-1, .cls-2, .cls-3, .cls-4, .cls-5 {
        isolation: isolate;
      }

      .cls-1, .cls-3, .cls-4, .cls-5 {
        fill: #d3dbff;
        font-family: Arial-BoldMT, Arial;
        font-weight: 700;
      }

      .cls-1, .cls-4 {
        font-size: 9.39px;
      }

      .cls-3, .cls-5 {
        font-size: 13.66px;
      }

      .cls-5 {
        letter-spacing: -.02em;
      }
    </style>
  </defs>
  <g id="Lag_2-2" data-name="Lag 2">
    <g id="Lag_1-2" data-name="Lag 1-2">
      <g class="cls-2">
        <text class="cls-5" transform="translate(11.33 36.89) rotate(-75.25)"><tspan x="0" y="0">P</tspan></text>
      </g>
      <g class="cls-2">
        <text class="cls-3" transform="translate(13.4 27.98) rotate(-54.65)"><tspan x="0" y="0">O</tspan></text>
      </g>
      <g class="cls-2">
        <text class="cls-3" transform="translate(19.48 19.27) rotate(-33.12)"><tspan x="0" y="0">R</tspan></text>
      </g>
      <g class="cls-2">
        <text class="cls-3" transform="translate(27.64 13.86) rotate(-13.46)"><tspan x="0" y="0">T</tspan></text>
      </g>
      <g class="cls-2">
        <text class="cls-3" transform="translate(36.53 11.67) rotate(5.04)"><tspan x="0" y="0">F</tspan></text>
      </g>
      <g class="cls-2">
        <text class="cls-3" transform="translate(44.95 12.1) rotate(25.01)"><tspan x="0" y="0">O</tspan></text>
      </g>
      <g class="cls-2">
        <text class="cls-5" transform="translate(54.55 16.65) rotate(44.92)"><tspan x="0" y="0">L</tspan></text>
      </g>
      <g class="cls-2">
        <text class="cls-3" transform="translate(60.48 22.79) rotate(59.06)"><tspan x="0" y="0">I</tspan></text>
      </g>
      <g class="cls-2">
        <text class="cls-3" transform="translate(63.36 26.63) rotate(75.27)"><tspan x="0" y="0">O</tspan></text>
      </g>
      <g class="cls-2">
        <text class="cls-1" transform="translate(65.85 40.22) rotate(99.27)"><tspan x="0" y="0">L</tspan></text>
      </g>
      <g class="cls-2">
        <text class="cls-4" transform="translate(64.92 46.09) rotate(111.75)"><tspan x="0" y="0">a</tspan></text>
      </g>
      <g class="cls-2">
        <text class="cls-4" transform="translate(62.76 51.62) rotate(124.3)"><tspan x="0" y="0">u</tspan></text>
      </g>
      <g class="cls-2">
        <text class="cls-4" transform="translate(59.33 56.52) rotate(134.83)"><tspan x="0" y="0">r</tspan></text>
      </g>
      <g class="cls-2">
        <text class="cls-4" transform="translate(56.55 59.46) rotate(145.59)"><tspan x="0" y="0">a</tspan></text>
      </g>
      <g class="cls-2">
        <text class="cls-4" transform="translate(48.98 64.1) rotate(163.78)"><tspan x="0" y="0">v</tspan></text>
      </g>
      <g class="cls-2">
        <text class="cls-4" transform="translate(44 65.63) rotate(175.4)"><tspan x="0" y="0">o</tspan></text>
      </g>
      <g class="cls-2">
        <text class="cls-4" transform="translate(38.08 66.14) rotate(-172.05)"><tspan x="0" y="0">n</tspan></text>
      </g>
      <g class="cls-2">
        <text class="cls-4" transform="translate(29.36 64.56) rotate(-152.31)"><tspan x="0" y="0">D</tspan></text>
      </g>
      <g class="cls-2">
        <text class="cls-4" transform="translate(23.21 61.32) rotate(-138.65)"><tspan x="0" y="0">e</tspan></text>
      </g>
      <g class="cls-2">
        <text class="cls-4" transform="translate(18.73 57.41) rotate(-126.03)"><tspan x="0" y="0">d</tspan></text>
      </g>
      <g class="cls-2">
        <text class="cls-4" transform="translate(15.19 52.61) rotate(-113.58)"><tspan x="0" y="0">e</tspan></text>
      </g>
      <g class="cls-2">
        <text class="cls-4" transform="translate(12.79 47.2) rotate(-100.99)"><tspan x="0" y="0">n</tspan></text>
      </g>
    </g>
  </g>
</svg>