<?xml version="1.0" encoding="UTF-8"?>
<svg id="Lag_2" data-name="Lag 2" xmlns="http://www.w3.org/2000/svg" viewBox="0 0 179.11 194.53">
  <defs>
    <style>
      .cls-1 {
        font-size: 16.05px;
      }

      .cls-1, .cls-2 {
        fill: #4854a1;
        font-family: Arial-Black, 'Arial Black';
        font-weight: 800;
      }

      .cls-2 {
        font-size: 28px;
      }
    </style>
  </defs>
  <g id="Lag_1-2" data-name="Lag 1">
    <text class="cls-2" transform="translate(41.77 102.53) rotate(-79.66)"><tspan x="0" y="0">P</tspan></text>
    <text class="cls-2" transform="translate(44.55 83.99) rotate(-57.6)"><tspan x="0" y="0">O</tspan></text>
    <text class="cls-2" transform="translate(56.06 65.54) rotate(-34.5)"><tspan x="0" y="0">R</tspan></text>
    <text class="cls-2" transform="translate(72.45 54.05) rotate(-13.5)"><tspan x="0" y="0">T</tspan></text>
    <text class="cls-2" transform="translate(90.65 49.56) rotate(6.37)"><tspan x="0" y="0">F</tspan></text>
    <text class="cls-2" transform="translate(107.87 50.77) rotate(27.64)"><tspan x="0" y="0">O</tspan></text>
    <text class="cls-2" transform="translate(127.06 60.96) rotate(49.09)"><tspan x="0" y="0">L</tspan></text>
    <text class="cls-2" transform="translate(138.2 74.36) rotate(64.03)"><tspan x="0" y="0">I</tspan></text>
    <text class="cls-2" transform="translate(143.5 82.65) rotate(81.5)"><tspan x="0" y="0">O</tspan></text>
    <text class="cls-1" transform="translate(144.98 113.78) rotate(109.16)"><tspan x="0" y="0">L</tspan></text>
    <text class="cls-1" transform="translate(141.7 123.4) rotate(120.44)"><tspan x="0" y="0">a</tspan></text>
    <text class="cls-1" transform="translate(136.57 132.22) rotate(131.66)"><tspan x="0" y="0">u</tspan></text>
    <text class="cls-1" transform="translate(129.67 139.81) rotate(140.9)"><tspan x="0" y="0">r</tspan></text>
    <text class="cls-1" transform="translate(124.37 144.33) rotate(150.58)"><tspan x="0" y="0">a</tspan></text>
    <text class="cls-1" transform="translate(115.3 149.25) rotate(159.09)"><tspan x="0" y="0"> </tspan></text>
    <text class="cls-1" transform="translate(110.73 151.19) rotate(167.02)"><tspan x="0" y="0">v</tspan></text>
    <text class="cls-1" transform="translate(102.06 153.31) rotate(177.31)"><tspan x="0" y="0">o</tspan></text>
    <text class="cls-1" transform="translate(91.89 153.84) rotate(-171.53)"><tspan x="0" y="0">n</tspan></text>
    <text class="cls-1" transform="translate(81.72 152.16) rotate(-163.11)"><tspan x="0" y="0"> </tspan></text>
    <text class="cls-1" transform="translate(76.89 151.03) rotate(-153.68)"><tspan x="0" y="0">D</tspan></text>
    <text class="cls-1" transform="translate(66.21 145.71) rotate(-141.46)"><tspan x="0" y="0">e</tspan></text>
    <text class="cls-1" transform="translate(58.2 139.39) rotate(-130.36)"><tspan x="0" y="0">d</tspan></text>
    <text class="cls-1" transform="translate(51.57 131.67) rotate(-119.11)"><tspan x="0" y="0">e</tspan></text>
    <text class="cls-1" transform="translate(46.57 122.79) rotate(-107.82)"><tspan x="0" y="0">n</tspan></text>
  </g>
</svg>