<?xml version="1.0" encoding="UTF-8"?>
<svg id="Lag_2" xmlns="http://www.w3.org/2000/svg" version="1.1" viewBox="0 0 179.1 194.5">
  <!-- Generator: Adobe Illustrator 30.1.0, SVG Export Plug-In . SVG Version: 2.1.1 Build 136)  -->
  <defs>
    <style>
      .st0 {
        font-size: 28px;
      }

      .st0, .st1, .st2 {
        isolation: isolate;
      }

      .st0, .st2 {
        fill: #d3dbff;
        font-family: Arial-BoldMT, Arial;
        font-weight: 700;
      }

      .st2 {
        font-size: 16px;
      }
    </style>
  </defs>
  <g id="Lag_1-2">
    <g class="st1">
      <text class="st0" transform="translate(41.8 102.5) rotate(-79.7)"><tspan x="0" y="0">P</tspan></text>
    </g>
    <g class="st1">
      <text class="st0" transform="translate(44.5 84) rotate(-57.6)"><tspan x="0" y="0">O</tspan></text>
    </g>
    <g class="st1">
      <text class="st0" transform="translate(56.1 65.5) rotate(-34.5)"><tspan x="0" y="0">R</tspan></text>
    </g>
    <g class="st1">
      <text class="st0" transform="translate(72.5 54) rotate(-13.5)"><tspan x="0" y="0">T</tspan></text>
    </g>
    <g class="st1">
      <text class="st0" transform="translate(90.7 49.6) rotate(6.4)"><tspan x="0" y="0">F</tspan></text>
    </g>
    <g class="st1">
      <text class="st0" transform="translate(107.9 50.8) rotate(27.6)"><tspan x="0" y="0">O</tspan></text>
    </g>
    <g class="st1">
      <text class="st0" transform="translate(127.1 61) rotate(49.1)"><tspan x="0" y="0">L</tspan></text>
    </g>
    <g class="st1">
      <text class="st0" transform="translate(138.2 74.4) rotate(64)"><tspan x="0" y="0">I</tspan></text>
    </g>
    <g class="st1">
      <text class="st0" transform="translate(143.5 82.7) rotate(81.5)"><tspan x="0" y="0">O</tspan></text>
    </g>
    <g class="st1">
      <text class="st2" transform="translate(145 113.8) rotate(109.2)"><tspan x="0" y="0">L</tspan></text>
    </g>
    <g class="st1">
      <text class="st2" transform="translate(141.7 123.4) rotate(120.4)"><tspan x="0" y="0">a</tspan></text>
    </g>
    <g class="st1">
      <text class="st2" transform="translate(136.6 132.2) rotate(131.7)"><tspan x="0" y="0">u</tspan></text>
    </g>
    <g class="st1">
      <text class="st2" transform="translate(129.7 139.8) rotate(140.9)"><tspan x="0" y="0">r</tspan></text>
    </g>
    <g class="st1">
      <text class="st2" transform="translate(124.4 144.3) rotate(150.6)"><tspan x="0" y="0">a</tspan></text>
    </g>
    <g class="st1">
      <text class="st2" transform="translate(110.7 151.2) rotate(167)"><tspan x="0" y="0">v</tspan></text>
    </g>
    <g class="st1">
      <text class="st2" transform="translate(102.1 153.3) rotate(177.3)"><tspan x="0" y="0">o</tspan></text>
    </g>
    <g class="st1">
      <text class="st2" transform="translate(91.9 153.8) rotate(-171.5)"><tspan x="0" y="0">n</tspan></text>
    </g>
    <g class="st1">
      <text class="st2" transform="translate(76.9 151) rotate(-153.7)"><tspan x="0" y="0">D</tspan></text>
    </g>
    <g class="st1">
      <text class="st2" transform="translate(66.2 145.7) rotate(-141.5)"><tspan x="0" y="0">e</tspan></text>
    </g>
    <g class="st1">
      <text class="st2" transform="translate(58.2 139.4) rotate(-130.4)"><tspan x="0" y="0">d</tspan></text>
    </g>
    <g class="st1">
      <text class="st2" transform="translate(51.6 131.7) rotate(-119.1)"><tspan x="0" y="0">e</tspan></text>
    </g>
    <g class="st1">
      <text class="st2" transform="translate(46.6 122.8) rotate(-107.8)"><tspan x="0" y="0">n</tspan></text>
    </g>
  </g>
</svg>